<?xml version="1.0" encoding="us-ascii" standalone="no"?><svg xmlns="http://www.w3.org/2000/svg" xmlns:xlink="http://www.w3.org/1999/xlink" contentStyleType="text/css" height="796px" preserveAspectRatio="none" style="width:305px;height:796px;background:#FFFFFF;" version="1.1" viewBox="0 0 305 796" width="305px" zoomAndPan="magnify"><defs/><g><!--cluster builder_wea--><g id="cluster_builder_wea"><path d="M8.5,6 L104.5,6 A3.75,3.75 0 0 1 107,8.5 L114,28.2969 L295.5,28.2969 A2.5,2.5 0 0 1 298,30.7969 L298,786.5 A2.5,2.5 0 0 1 295.5,789 L8.5,789 A2.5,2.5 0 0 1 6,786.5 L6,8.5 A2.5,2.5 0 0 1 8.5,6 " fill="none" style="stroke:#000000;stroke-width:1.5;"/><line style="stroke:#000000;stroke-width:1.5;" x1="6" x2="114" y1="28.2969" y2="28.2969"/><text fill="#000000" font-family="sans-serif" font-size="14" font-weight="bold" lengthAdjust="spacing" textLength="95" x="10" y="20.9951">builder_wea</text></g><!--cluster builder_wea.dart--><g id="cluster_builder_wea.dart"><path d="M32.5,49 L168.5,49 A3.75,3.75 0 0 1 171,51.5 L178,71.2969 L271.5,71.2969 A2.5,2.5 0 0 1 274,73.7969 L274,762.5 A2.5,2.5 0 0 1 271.5,765 L32.5,765 A2.5,2.5 0 0 1 30,762.5 L30,51.5 A2.5,2.5 0 0 1 32.5,49 " fill="none" style="stroke:#000000;stroke-width:1.5;"/><line style="stroke:#000000;stroke-width:1.5;" x1="30" x2="178" y1="71.2969" y2="71.2969"/><text fill="#000000" font-family="sans-serif" font-size="14" font-weight="bold" lengthAdjust="spacing" textLength="135" x="34" y="63.9951">builder_wea.dart</text></g><!--class Weather--><g id="elem_Weather"><rect codeLine="3" fill="#F1F1F1" height="129.4844" id="Weather" rx="2.5" ry="2.5" style="stroke:#181818;stroke-width:0.5;" width="172" x="66" y="620"/><ellipse cx="116.75" cy="636" fill="#ADD1B2" rx="11" ry="11" style="stroke:#181818;stroke-width:1.0;"/><path d="M119.0938,631.6719 C118.1563,631.2344 117.5625,631.0938 116.6875,631.0938 C114.0625,631.0938 112.0625,633.1719 112.0625,635.8906 L112.0625,637.0156 C112.0625,639.5938 114.1719,641.4844 117.0625,641.4844 C118.2813,641.4844 119.4375,641.1875 120.1875,640.6406 C120.7656,640.2344 121.0938,639.7813 121.0938,639.3906 C121.0938,638.9375 120.7031,638.5469 120.2344,638.5469 C120.0156,638.5469 119.8125,638.625 119.625,638.8125 C119.1719,639.2969 119.1719,639.2969 118.9844,639.3906 C118.5625,639.6563 117.875,639.7813 117.1094,639.7813 C115.0625,639.7813 113.7656,638.6875 113.7656,636.9844 L113.7656,635.8906 C113.7656,634.1094 115.0156,632.7969 116.75,632.7969 C117.3281,632.7969 117.9375,632.9531 118.4063,633.2031 C118.8906,633.4844 119.0625,633.7031 119.1563,634.1094 C119.2188,634.5156 119.25,634.6406 119.3906,634.7656 C119.5313,634.9063 119.7656,635.0156 119.9844,635.0156 C120.25,635.0156 120.5156,634.875 120.6875,634.6563 C120.7969,634.5 120.8281,634.3125 120.8281,633.8906 L120.8281,632.4688 C120.8281,632.0313 120.8125,631.9063 120.7188,631.75 C120.5625,631.4844 120.2813,631.3438 119.9844,631.3438 C119.6875,631.3438 119.4844,631.4375 119.2656,631.75 L119.0938,631.6719 Z " fill="#000000"/><text fill="#000000" font-family="sans-serif" font-size="14" lengthAdjust="spacing" textLength="62" x="137.25" y="640.8467">Weather</text><line style="stroke:#181818;stroke-width:0.5;" x1="67" x2="237" y1="652" y2="652"/><ellipse cx="77" cy="665.6484" fill="none" rx="3" ry="3" style="stroke:#038048;stroke-width:1.0;"/><text fill="#000000" font-family="sans-serif" font-size="14" lengthAdjust="spacing" textLength="106" x="86" y="668.9951">String location</text><ellipse cx="77" cy="681.9453" fill="none" rx="3" ry="3" style="stroke:#038048;stroke-width:1.0;"/><text fill="#000000" font-family="sans-serif" font-size="14" lengthAdjust="spacing" textLength="146" x="86" y="685.292">double temperature</text><ellipse cx="77" cy="698.2422" fill="none" rx="3" ry="3" style="stroke:#038048;stroke-width:1.0;"/><text fill="#000000" font-family="sans-serif" font-size="14" lengthAdjust="spacing" textLength="116" x="86" y="701.5889">double humidity</text><ellipse cx="77" cy="714.5391" fill="none" rx="3" ry="3" style="stroke:#038048;stroke-width:1.0;"/><text fill="#000000" font-family="sans-serif" font-size="14" lengthAdjust="spacing" textLength="132" x="86" y="717.8857">double windSpeed</text><line style="stroke:#181818;stroke-width:0.5;" x1="67" x2="237" y1="725.1875" y2="725.1875"/><ellipse cx="77" cy="738.8359" fill="#84BE84" rx="3" ry="3" style="stroke:#038048;stroke-width:1.0;"/><text fill="#000000" font-family="sans-serif" font-size="14" lengthAdjust="spacing" textLength="118" x="86" y="742.1826">String toString()</text></g><!--class WeatherBuilder--><g id="elem_WeatherBuilder"><rect codeLine="11" fill="#F1F1F1" height="129.4844" id="WeatherBuilder" rx="2.5" ry="2.5" style="stroke:#181818;stroke-width:0.5;" width="188" x="58" y="225"/><ellipse cx="92.8" cy="241" fill="#A9DCDF" rx="11" ry="11" style="stroke:#181818;stroke-width:1.0;"/><path d="M94.8781,242.8125 L95.2688,243.7969 L94.8781,243.7969 C94.425,243.7969 94.3156,243.8125 94.1594,243.9219 C93.9094,244.0781 93.7531,244.3594 93.7531,244.6563 C93.7531,244.9219 93.8938,245.1719 94.1125,245.3281 C94.2531,245.4531 94.4563,245.5 94.8781,245.5 L97.2375,245.5 C97.5969,245.5 97.8156,245.4688 97.9563,245.375 C98.2063,245.2344 98.3625,244.9375 98.3625,244.6563 C98.3625,244.375 98.2219,244.125 98.0031,243.9688 C97.8313,243.8281 97.675,243.7969 97.2063,243.7969 L93.8156,235.5938 L90.1438,235.5938 C89.6906,235.5938 89.5656,235.6094 89.4094,235.7031 C89.1594,235.875 89.0031,236.1563 89.0031,236.4375 C89.0031,236.7188 89.1438,236.9688 89.3625,237.1406 C89.5344,237.25 89.7063,237.2813 90.1438,237.2813 L91.2219,237.2813 L88.5813,243.7969 C88.1594,243.7969 88.0031,243.8125 87.8469,243.9219 C87.5969,244.0781 87.4406,244.3594 87.4406,244.6563 C87.4406,245.2188 87.8156,245.5 88.5656,245.5 L90.8313,245.5 C91.1906,245.5 91.4094,245.4688 91.5344,245.375 C91.8,245.2344 91.9406,244.9375 91.9406,244.6563 C91.9406,244.375 91.8156,244.125 91.5969,243.9531 C91.425,243.8281 91.2844,243.7969 90.8313,243.7969 L90.4406,243.7969 L90.8313,242.8125 L94.8781,242.8125 Z M94.175,241.1094 L91.5031,241.1094 L92.8469,237.8438 L94.175,241.1094 Z " fill="#000000"/><text fill="#000000" font-family="sans-serif" font-size="14" font-style="italic" lengthAdjust="spacing" textLength="112" x="111.2" y="245.8467">WeatherBuilder</text><line style="stroke:#181818;stroke-width:0.5;" x1="59" x2="245" y1="257" y2="257"/><line style="stroke:#181818;stroke-width:0.5;" x1="59" x2="245" y1="265" y2="265"/><ellipse cx="69" cy="278.6484" fill="#84BE84" rx="3" ry="3" style="stroke:#038048;stroke-width:1.0;"/><text fill="#000000" font-family="sans-serif" font-size="14" lengthAdjust="spacing" textLength="129" x="78" y="281.9951">void setLocation()</text><ellipse cx="69" cy="294.9453" fill="#84BE84" rx="3" ry="3" style="stroke:#038048;stroke-width:1.0;"/><text fill="#000000" font-family="sans-serif" font-size="14" lengthAdjust="spacing" textLength="162" x="78" y="298.292">void setTemperature()</text><ellipse cx="69" cy="311.2422" fill="#84BE84" rx="3" ry="3" style="stroke:#038048;stroke-width:1.0;"/><text fill="#000000" font-family="sans-serif" font-size="14" lengthAdjust="spacing" textLength="131" x="78" y="314.5889">void setHumidity()</text><ellipse cx="69" cy="327.5391" fill="#84BE84" rx="3" ry="3" style="stroke:#038048;stroke-width:1.0;"/><text fill="#000000" font-family="sans-serif" font-size="14" lengthAdjust="spacing" textLength="149" x="78" y="330.8857">void setWindSpeed()</text><ellipse cx="69" cy="343.8359" fill="#84BE84" rx="3" ry="3" style="stroke:#038048;stroke-width:1.0;"/><text fill="#000000" font-family="sans-serif" font-size="14" lengthAdjust="spacing" textLength="111" x="78" y="347.1826">Weather build()</text></g><!--class ConcreteWeatherBuilder--><g id="elem_ConcreteWeatherBuilder"><rect codeLine="19" fill="#F1F1F1" height="145.7813" id="ConcreteWeatherBuilder" rx="2.5" ry="2.5" style="stroke:#181818;stroke-width:0.5;" width="211" x="46.5" y="414"/><ellipse cx="61.5" cy="430" fill="#ADD1B2" rx="11" ry="11" style="stroke:#181818;stroke-width:1.0;"/><path d="M63.8438,425.6719 C62.9063,425.2344 62.3125,425.0938 61.4375,425.0938 C58.8125,425.0938 56.8125,427.1719 56.8125,429.8906 L56.8125,431.0156 C56.8125,433.5938 58.9219,435.4844 61.8125,435.4844 C63.0313,435.4844 64.1875,435.1875 64.9375,434.6406 C65.5156,434.2344 65.8438,433.7813 65.8438,433.3906 C65.8438,432.9375 65.4531,432.5469 64.9844,432.5469 C64.7656,432.5469 64.5625,432.625 64.375,432.8125 C63.9219,433.2969 63.9219,433.2969 63.7344,433.3906 C63.3125,433.6563 62.625,433.7813 61.8594,433.7813 C59.8125,433.7813 58.5156,432.6875 58.5156,430.9844 L58.5156,429.8906 C58.5156,428.1094 59.7656,426.7969 61.5,426.7969 C62.0781,426.7969 62.6875,426.9531 63.1563,427.2031 C63.6406,427.4844 63.8125,427.7031 63.9063,428.1094 C63.9688,428.5156 64,428.6406 64.1406,428.7656 C64.2813,428.9063 64.5156,429.0156 64.7344,429.0156 C65,429.0156 65.2656,428.875 65.4375,428.6563 C65.5469,428.5 65.5781,428.3125 65.5781,427.8906 L65.5781,426.4688 C65.5781,426.0313 65.5625,425.9063 65.4688,425.75 C65.3125,425.4844 65.0313,425.3438 64.7344,425.3438 C64.4375,425.3438 64.2344,425.4375 64.0156,425.75 L63.8438,425.6719 Z " fill="#000000"/><text fill="#000000" font-family="sans-serif" font-size="14" lengthAdjust="spacing" textLength="179" x="75.5" y="434.8467">ConcreteWeatherBuilder</text><line style="stroke:#181818;stroke-width:0.5;" x1="47.5" x2="256.5" y1="446" y2="446"/><ellipse cx="57.5" cy="459.6484" fill="none" rx="3" ry="3" style="stroke:#038048;stroke-width:1.0;"/><text fill="#000000" font-family="sans-serif" font-size="14" lengthAdjust="spacing" textLength="125" x="66.5" y="462.9951">Weather weather</text><line style="stroke:#181818;stroke-width:0.5;" x1="47.5" x2="256.5" y1="470.2969" y2="470.2969"/><ellipse cx="57.5" cy="483.9453" fill="#84BE84" rx="3" ry="3" style="stroke:#038048;stroke-width:1.0;"/><text fill="#000000" font-family="sans-serif" font-size="14" lengthAdjust="spacing" textLength="129" x="66.5" y="487.292">void setLocation()</text><ellipse cx="57.5" cy="500.2422" fill="#84BE84" rx="3" ry="3" style="stroke:#038048;stroke-width:1.0;"/><text fill="#000000" font-family="sans-serif" font-size="14" lengthAdjust="spacing" textLength="162" x="66.5" y="503.5889">void setTemperature()</text><ellipse cx="57.5" cy="516.5391" fill="#84BE84" rx="3" ry="3" style="stroke:#038048;stroke-width:1.0;"/><text fill="#000000" font-family="sans-serif" font-size="14" lengthAdjust="spacing" textLength="131" x="66.5" y="519.8857">void setHumidity()</text><ellipse cx="57.5" cy="532.8359" fill="#84BE84" rx="3" ry="3" style="stroke:#038048;stroke-width:1.0;"/><text fill="#000000" font-family="sans-serif" font-size="14" lengthAdjust="spacing" textLength="149" x="66.5" y="536.1826">void setWindSpeed()</text><ellipse cx="57.5" cy="549.1328" fill="#84BE84" rx="3" ry="3" style="stroke:#038048;stroke-width:1.0;"/><text fill="#000000" font-family="sans-serif" font-size="14" lengthAdjust="spacing" textLength="111" x="66.5" y="552.4795">Weather build()</text></g><!--class WeatherDirector--><g id="elem_WeatherDirector"><rect codeLine="31" fill="#F1F1F1" height="80.5938" id="WeatherDirector" rx="2.5" ry="2.5" style="stroke:#181818;stroke-width:0.5;" width="192" x="56" y="84"/><ellipse cx="88.1" cy="100" fill="#ADD1B2" rx="11" ry="11" style="stroke:#181818;stroke-width:1.0;"/><path d="M90.4438,95.6719 C89.5063,95.2344 88.9125,95.0938 88.0375,95.0938 C85.4125,95.0938 83.4125,97.1719 83.4125,99.8906 L83.4125,101.0156 C83.4125,103.5938 85.5219,105.4844 88.4125,105.4844 C89.6313,105.4844 90.7875,105.1875 91.5375,104.6406 C92.1156,104.2344 92.4438,103.7813 92.4438,103.3906 C92.4438,102.9375 92.0531,102.5469 91.5844,102.5469 C91.3656,102.5469 91.1625,102.625 90.975,102.8125 C90.5219,103.2969 90.5219,103.2969 90.3344,103.3906 C89.9125,103.6563 89.225,103.7813 88.4594,103.7813 C86.4125,103.7813 85.1156,102.6875 85.1156,100.9844 L85.1156,99.8906 C85.1156,98.1094 86.3656,96.7969 88.1,96.7969 C88.6781,96.7969 89.2875,96.9531 89.7563,97.2031 C90.2406,97.4844 90.4125,97.7031 90.5063,98.1094 C90.5688,98.5156 90.6,98.6406 90.7406,98.7656 C90.8813,98.9063 91.1156,99.0156 91.3344,99.0156 C91.6,99.0156 91.8656,98.875 92.0375,98.6563 C92.1469,98.5 92.1781,98.3125 92.1781,97.8906 L92.1781,96.4688 C92.1781,96.0313 92.1625,95.9063 92.0688,95.75 C91.9125,95.4844 91.6313,95.3438 91.3344,95.3438 C91.0375,95.3438 90.8344,95.4375 90.6156,95.75 L90.4438,95.6719 Z " fill="#000000"/><text fill="#000000" font-family="sans-serif" font-size="14" lengthAdjust="spacing" textLength="122" x="105.9" y="104.8467">WeatherDirector</text><line style="stroke:#181818;stroke-width:0.5;" x1="57" x2="247" y1="116" y2="116"/><ellipse cx="67" cy="129.6484" fill="none" rx="3" ry="3" style="stroke:#038048;stroke-width:1.0;"/><text fill="#000000" font-family="sans-serif" font-size="14" lengthAdjust="spacing" textLength="166" x="76" y="132.9951">WeatherBuilder builder</text><line style="stroke:#181818;stroke-width:0.5;" x1="57" x2="247" y1="140.2969" y2="140.2969"/><ellipse cx="67" cy="153.9453" fill="#84BE84" rx="3" ry="3" style="stroke:#038048;stroke-width:1.0;"/><text fill="#000000" font-family="sans-serif" font-size="14" lengthAdjust="spacing" textLength="163" x="76" y="157.292">Weather getWeather()</text></g><!--reverse link ConcreteWeatherBuilder to Weather--><g id="link_ConcreteWeatherBuilder_Weather"><path codeLine="28" d="M152,573.265 C152,588.933 152,605.037 152,619.93 " fill="none" id="ConcreteWeatherBuilder-backto-Weather" style="stroke:#181818;stroke-width:1.0;"/><polygon fill="none" points="152,560.242,148,566.242,152,572.242,156,566.242,152,560.242" style="stroke:#181818;stroke-width:1.0;"/></g><!--reverse link WeatherBuilder to ConcreteWeatherBuilder--><g id="link_WeatherBuilder_ConcreteWeatherBuilder"><path codeLine="29" d="M152,374.451 C152,387.577 152,401.042 152,413.873 " fill="none" id="WeatherBuilder-backto-ConcreteWeatherBuilder" style="stroke:#181818;stroke-width:1.0;"/><polygon fill="none" points="145,374.244,152,354.243,159,374.243,145,374.244" style="stroke:#181818;stroke-width:1.0;"/></g><!--reverse link WeatherDirector to WeatherBuilder--><g id="link_WeatherDirector_WeatherBuilder"><path codeLine="36" d="M152,178.503 C152,193.31 152,209.554 152,224.906 " fill="none" id="WeatherDirector-backto-WeatherBuilder" style="stroke:#181818;stroke-width:1.0;"/><polygon fill="none" points="152,165.374,148,171.374,152,177.374,156,171.374,152,165.374" style="stroke:#181818;stroke-width:1.0;"/></g><!--SRC=[nPF1JiGW48RlFCLaJngpFW3PathmuAqcUpHJcEoIjD0CqsqswhlR5HffrAJruWdu2VzyymEH13os53iqL567Z18Oj5RAD1WZREhUDPRuPI3KkbZSMcJHUayeH-8Dl2g0cqhO-GCqmQ2uu2-I3NtT40Yr7OtcFLEX7llMMIVdGXgSjrL7P0i_2MboTQtUbS8w2gCHM4LubpOow2au2v7aAPEEpeNw_0KxttZCl7DrFo4dEHU4JvI4l8pqFdZ39FGZyUGwfF4VclWhVjXk5pyZjVOsTsyBt7yXM_d67noJ6N_7_4Ao6UHZPNQ7CTKqNHRWjpehafjw-W00]--></g></svg>